<svg width="69" height="106" viewBox="0 0 69 106" fill="none" xmlns="http://www.w3.org/2000/svg">
<path d="M55.2214 1.38468C53.0019 2.16943 50.389 2.81753 48.823 4.52943C50.3401 4.43421 52.061 4.48754 53.5641 4.23183C52.644 4.6123 51.5342 5.00468 50.6282 5.54563C48.8162 6.62755 47.0041 7.70945 45.3958 8.93988C45.1639 8.47041 44.9321 8.00087 44.7003 7.53134C41.9541 8.83325 39.6294 10.5928 37.3046 12.3523C35.6963 13.5828 34.2917 14.9618 32.8871 16.3408C31.3068 17.8923 29.9163 19.4318 28.5399 21.1318C26.0958 23.7056 23.8555 26.428 21.819 29.299C18.5955 33.858 15.5758 38.5656 13.7221 43.5228C13.5887 44.1766 13.2516 44.6819 13.1042 45.1752C12.5003 46.9881 12.058 48.4681 11.8194 50.0966C11.8475 50.4176 11.7283 51.2319 11.5667 51.5647C11.6089 52.0462 11.4474 52.379 11.4897 52.8605C11.7428 55.7491 11.4131 58.5128 11.4767 61.4133C11.2448 60.9438 10.6055 60.1771 10.3737 59.7076C9.53802 61.051 9.66464 62.4952 10.1705 63.9158C10.8942 65.645 10.2903 67.4582 9.27908 68.9737C7.25604 67.6487 5.04333 66.3353 3.54699 64.4926C2.24761 64.8975 1.1238 65.1291 0 65.3607C0.828922 66.1159 1.48227 67.043 2.31119 67.7976L1.5104 67.3639C1.5526 67.8451 1.65108 68.9685 1.69329 69.4498C1.53908 72.0413 3.23913 74.0322 4.38431 76.2195C5.29764 77.9371 6.00726 79.5065 7.09616 81.0515C10.6651 86.9589 14.7888 92.6706 18.9126 98.3823C20.0156 100.088 20.7534 101.978 21.1118 103.892C21.6667 103.696 22.6009 103.475 22.9801 103.452L23.1979 103.76C23.4157 104.07 23.8653 104.849 24.0972 105.318C24.6521 105.122 25.5862 104.902 26.1411 104.705C26.9278 104.979 27.7145 105.252 28.3116 105.538C28.9998 104.688 30.0533 103.653 29.9548 102.53C30.6909 91.3495 31.8064 80.1456 34.0878 69.1918C34.2138 66.2789 34.3399 63.3668 34.6556 60.4424C33.623 59.5391 32.4429 59.1291 30.9257 59.2243C30.5886 59.7296 30.0478 60.0863 29.7107 60.5915C29.5565 63.1829 28.6297 65.6616 27.8925 68.128C27.4502 69.6082 26.9938 70.9274 26.5374 72.2472C25.5469 71.825 24.5284 71.0827 23.8891 70.3159C23.9802 69.1803 23.8677 67.897 23.7692 66.7736C22.5256 63.4629 23.7473 59.9977 24.0208 56.592C24.6309 48.3243 27.3411 40.0862 32.4396 32.989C34.6517 29.9457 36.4706 26.7657 39.0902 24.0195C43.5004 17.7724 49.9478 13.0109 57.0345 9.01611C57.5894 8.81997 57.9546 8.63563 58.5094 8.43948C60.5393 7.66665 62.3654 6.74522 64.2056 5.98424C62.1336 6.27569 60.0616 6.56711 57.9754 6.69806C59.0711 6.14518 60.3423 5.41994 61.424 4.70661C59.9208 4.96232 58.2422 5.39042 56.7391 5.64612C57.8066 4.77231 58.8742 3.8985 60.1454 3.17327C62.99 2.99471 65.8347 2.81614 68.6794 2.63757C67.8505 1.88281 67.2113 1.11614 66.3823 0.36137C65.8275 0.557552 65.0829 0.765655 64.5281 0.961843C61.6761 -1.11817 58.0239 0.724681 55.2214 1.38468Z" fill="#005AAA"/>
</svg>
